<?xml version="1.0" standalone="no"?>
<!DOCTYPE svg PUBLIC "-//W3C//DTD SVG 20010904//EN"
 "http://www.w3.org/TR/2001/REC-SVG-20010904/DTD/svg10.dtd">
<svg version="1.0" xmlns="http://www.w3.org/2000/svg"
 width="640.000000pt" height="640.000000pt" viewBox="0 0 640.000000 640.000000"
 preserveAspectRatio="xMidYMid meet">

<g transform="translate(0.000000,640.000000) scale(0.100000,-0.100000)"
fill="#000000" stroke="none">
<path d="M0 3200 l0 -3200 3200 0 3200 0 0 3200 0 3200 -3200 0 -3200 0 0
-3200z m4348 2453 l3 -83 -1776 0 -1775 0 0 -1775 0 -1775 -80 0 -80 0 0 1860
0 1860 1853 -2 1852 -3 3 -82z m-948 -1358 l0 -975 -170 0 -170 0 0 790 c0
435 -3 790 -7 790 -5 0 -16 -12 -25 -28 -9 -15 -44 -63 -78 -107 -34 -44 -71
-93 -83 -109 -12 -16 -31 -41 -43 -55 -47 -59 -334 -441 -334 -446 0 -3 79 -5
175 -5 l175 0 0 -140 0 -140 -284 0 -285 0 -60 -77 c-34 -43 -128 -166 -209
-273 l-147 -195 -203 -3 c-111 -1 -202 0 -202 3 0 3 74 103 165 223 256 338
428 564 545 717 130 171 270 354 410 540 59 77 144 190 190 250 46 61 102 134
123 163 l40 52 238 0 239 0 0 -975z m2340 -1790 l0 -1855 -1855 0 -1855 0 0
80 0 80 1770 0 1770 0 0 1768 c0 973 3 1772 7 1775 3 4 42 7 85 7 l78 0 0
-1855z m-2342 153 c2 -420 6 -509 24 -470 3 7 96 96 243 232 71 65 160 148
295 274 187 175 230 215 295 276 39 36 96 89 127 118 l57 52 170 0 c93 0 172
-4 175 -9 3 -5 -11 -24 -32 -41 -20 -18 -64 -58 -97 -89 -33 -31 -159 -149
-280 -261 -121 -113 -262 -246 -315 -295 -52 -50 -133 -125 -179 -168 -47 -44
-80 -82 -75 -86 8 -8 273 -239 419 -366 246 -214 404 -351 430 -374 17 -14 79
-69 139 -121 61 -52 126 -110 145 -127 l36 -32 -228 -1 -229 0 -66 58 c-37 31
-74 64 -82 72 -8 9 -118 107 -245 219 -281 249 -455 404 -554 494 -42 38 -97
87 -123 109 l-48 40 0 -496 0 -496 -170 0 -170 0 0 978 c0 538 3 981 6 985 4
3 79 5 168 4 l161 -2 3 -477z"/>
</g>
</svg>
