<?xml version="1.0" standalone="no"?>
<!DOCTYPE svg PUBLIC "-//W3C//DTD SVG 20010904//EN"
 "http://www.w3.org/TR/2001/REC-SVG-20010904/DTD/svg10.dtd">
<svg version="1.0" xmlns="http://www.w3.org/2000/svg"
 width="150.000000pt" height="150.000000pt" viewBox="0 0 150.000000 150.000000"
 preserveAspectRatio="xMidYMid meet">

<g transform="translate(0.000000,150.000000) scale(0.100000,-0.100000)"
fill="#000000" stroke="none">
<path d="M805 1488 c-2 -7 -6 -35 -10 -63 -3 -27 -16 -69 -27 -93 -20 -42 -20
-44 -2 -63 10 -11 18 -35 19 -52 0 -24 4 -31 16 -29 11 1 23 -13 37 -45 l20
-47 16 37 c12 31 13 41 2 62 -7 13 -17 21 -21 17 -5 -4 -5 -1 -1 6 4 7 15 11
24 10 9 -2 18 5 20 16 3 15 -1 18 -22 14 -44 -9 -52 13 -33 95 22 94 22 124
-2 137 -25 13 -31 13 -36 -2z"/>
<path d="M610 1236 c0 -12 7 -14 30 -9 25 5 29 3 24 -11 -4 -12 -10 -14 -19
-6 -12 10 -25 4 -25 -11 0 -5 18 -13 41 -19 35 -10 44 -9 60 6 26 23 24 27
-18 42 -67 24 -93 26 -93 8z m90 -26 c0 -5 -7 -10 -16 -10 -8 0 -12 5 -9 10 3
6 10 10 16 10 5 0 9 -4 9 -10z"/>
<path d="M920 1194 c0 -32 -41 -144 -53 -144 -2 0 -18 11 -37 25 l-34 25 -21
-20 c-20 -18 -23 -19 -35 -5 -16 19 -34 19 -50 0 -15 -18 -34 -9 -26 11 3 9
-2 18 -12 21 -9 4 -23 16 -31 27 -14 19 -15 19 -21 0 -6 -15 -10 -10 -20 26
l-13 45 -9 -35 c-5 -19 -10 -70 -12 -113 -3 -60 0 -82 13 -100 9 -12 25 -40
36 -61 24 -47 99 -124 133 -137 46 -18 79 -2 117 55 19 29 44 61 55 71 11 10
20 27 20 38 0 11 7 29 17 39 18 20 19 84 3 196 -10 75 -20 92 -20 36z m-132
-180 c44 -12 24 -29 -30 -25 -47 3 -50 4 -33 17 21 15 30 17 63 8z"/>
<path d="M771 1164 c0 -11 3 -14 6 -6 3 7 2 16 -1 19 -3 4 -6 -2 -5 -13z"/>
<path d="M880 1109 c-7 -11 -10 -23 -7 -25 2 -2 9 7 15 21 14 30 7 33 -8 4z"/>
<path d="M422 1055 c3 -5 47 -85 97 -177 l92 -168 40 0 39 0 -127 168 c-121
160 -152 199 -141 177z"/>
<path d="M946 886 c-69 -91 -126 -167 -126 -170 0 -3 15 -6 34 -6 34 0 36 3
117 148 45 81 89 157 97 170 8 12 12 22 9 22 -3 0 -62 -74 -131 -164z"/>
<path d="M21 584 c-11 -15 -18 -31 -14 -38 16 -28 38 -46 56 -46 11 0 29 -7
39 -17 17 -15 18 -14 18 19 0 47 9 52 36 23 13 -14 34 -25 49 -25 28 0 65 31
65 55 0 24 -38 55 -66 55 -16 0 -36 -11 -52 -30 -15 -16 -36 -30 -48 -30 -17
0 -21 -5 -17 -20 8 -29 -25 -26 -38 4 -22 47 27 89 57 49 12 -17 13 -16 14 5
0 19 -5 22 -39 22 -31 0 -44 -6 -60 -26z m204 -29 c0 -33 -3 -40 -20 -40 -15
0 -21 8 -23 28 -5 39 5 59 25 55 14 -2 18 -13 18 -43z"/>
<path d="M197 564 c-8 -8 1 -24 14 -24 5 0 9 7 9 15 0 15 -12 20 -23 9z"/>
<path d="M285 555 l0 -55 32 0 c52 0 83 19 83 51 0 35 -32 59 -80 59 l-35 0 0
-55z m74 31 c20 -23 10 -71 -14 -71 -16 0 -21 8 -23 43 -3 45 13 57 37 28z"/>
<path d="M738 555 c4 -55 4 -55 37 -55 18 0 40 3 49 6 18 7 22 44 5 44 -6 0
-8 9 -4 21 9 27 -8 39 -55 39 l-35 0 3 -55z m62 31 c0 -17 -14 -29 -23 -20 -8
8 3 34 14 34 5 0 9 -6 9 -14z m5 -56 c0 -7 -6 -15 -12 -17 -8 -3 -13 4 -13 17
0 13 5 20 13 18 6 -3 12 -11 12 -18z"/>
<path d="M890 580 c-7 -16 -17 -30 -22 -30 -5 0 -6 -5 -3 -10 4 -6 1 -17 -5
-25 -10 -12 -9 -15 8 -15 15 0 20 5 16 15 -5 11 1 15 21 15 20 0 26 -4 21 -15
-4 -12 6 -15 56 -15 53 0 59 2 48 15 -23 28 1 31 24 4 23 -27 75 -52 62 -30
-5 7 6 11 33 11 21 0 46 3 55 6 19 7 21 40 4 47 -10 4 -9 8 2 16 13 10 12 13
-4 26 -25 19 -101 21 -89 3 13 -22 12 -76 -2 -88 -10 -8 -18 -4 -33 18 -19 26
-19 29 -4 40 16 10 16 12 -2 27 -11 8 -36 15 -55 15 l-36 0 3 -50 c5 -67 -18
-67 -47 0 -12 28 -25 50 -30 50 -5 0 -14 -13 -21 -30z m160 0 c0 -11 -4 -20
-9 -20 -14 0 -23 18 -16 30 10 17 25 11 25 -10z m130 6 c0 -8 -4 -18 -10 -21
-5 -3 -10 3 -10 14 0 12 5 21 10 21 6 0 10 -6 10 -14z m-260 -26 c0 -5 -4 -10
-10 -10 -5 0 -10 5 -10 10 0 6 5 10 10 10 6 0 10 -4 10 -10z m265 -30 c0 -7
-6 -15 -12 -17 -8 -3 -13 4 -13 17 0 13 5 20 13 18 6 -3 12 -11 12 -18z"/>
<path d="M1245 555 l0 -55 46 0 c31 0 49 5 52 14 5 12 -1 13 -29 9 -28 -5 -34
-2 -34 12 0 12 6 16 20 12 13 -3 20 0 20 10 0 10 -6 12 -20 8 -15 -5 -20 -2
-20 10 0 13 7 16 30 13 19 -3 29 -1 27 6 -2 6 -23 12 -48 14 l-44 3 0 -56z"/>
<path d="M1365 555 c0 -49 2 -55 21 -55 18 0 20 5 17 28 l-5 27 26 -31 c14
-17 35 -34 46 -37 23 -6 19 4 -14 42 -15 17 -17 25 -8 28 17 7 15 40 -4 47 -9
3 -30 6 -47 6 l-32 0 0 -55z m60 25 c0 -7 -6 -15 -12 -17 -8 -3 -13 4 -13 17
0 13 5 20 13 18 6 -3 12 -11 12 -18z"/>
<path d="M486 574 c-33 -32 -13 -74 36 -74 25 0 48 23 48 49 0 16 -30 41 -50
41 -10 0 -26 -7 -34 -16z m49 -30 c0 -19 -5 -29 -15 -29 -16 0 -25 28 -16 51
10 25 31 10 31 -22z"/>
<path d="M510 545 c0 -8 5 -15 10 -15 6 0 10 7 10 15 0 8 -4 15 -10 15 -5 0
-10 -7 -10 -15z"/>
<path d="M592 538 c3 -57 28 -82 28 -28 0 24 4 31 15 26 9 -3 15 0 15 9 0 9
-6 12 -15 9 -10 -4 -15 0 -15 11 0 12 6 16 20 12 11 -3 20 -1 20 4 0 5 -16 9
-36 9 l-35 0 3 -52z"/>
<path d="M610 390 c-47 -3 -95 -11 -107 -17 -57 -33 -132 -172 -133 -246 0
-47 27 -96 57 -103 81 -21 205 111 229 241 3 22 18 59 31 82 13 23 20 43 16
45 -4 2 -46 1 -93 -2z m14 -52 c41 -58 -14 -191 -96 -234 -37 -19 -54 -18 -78
6 -43 43 -12 159 58 221 41 37 93 40 116 7z"/>
<path d="M810 355 c12 -20 28 -63 36 -98 18 -76 50 -132 104 -181 74 -66 136
-71 166 -13 36 69 -15 221 -100 293 -39 33 -41 34 -134 34 l-94 0 22 -35z
m184 -25 c90 -79 104 -240 21 -240 -64 0 -148 107 -149 189 -1 27 5 55 13 64
22 28 75 21 115 -13z"/>
</g>
</svg>
